<svg xmlns="http://www.w3.org/2000/svg" viewBox="0 0 192 192">
  <defs>
    <linearGradient id="grad" x1="0%" y1="0%" x2="100%" y2="100%">
      <stop offset="0%" style="stop-color:#f97316"/>
      <stop offset="100%" style="stop-color:#ea580c"/>
    </linearGradient>
  </defs>
  
  <!-- Background -->
  <rect width="192" height="192" rx="40" fill="url(#grad)"/>
  
  <!-- House shape -->
  <path d="M96 30 L30 85 L45 85 L45 150 L147 150 L147 85 L162 85 Z" fill="#ffffff"/>
  
  <!-- Door -->
  <rect x="80" y="105" width="32" height="45" fill="url(#grad)" rx="3"/>
  <!-- Door handle -->
  <circle cx="105" cy="128" r="3" fill="#ffffff"/>
  
  <!-- Left Window -->
  <rect x="50" y="95" width="22" height="22" fill="url(#grad)" rx="3"/>
  <line x1="61" y1="95" x2="61" y2="117" stroke="#ffffff" stroke-width="2"/>
  <line x1="50" y1="106" x2="72" y2="106" stroke="#ffffff" stroke-width="2"/>
  
  <!-- Right Window -->
  <rect x="120" y="95" width="22" height="22" fill="url(#grad)" rx="3"/>
  <line x1="131" y1="95" x2="131" y2="117" stroke="#ffffff" stroke-width="2"/>
  <line x1="120" y1="106" x2="142" y2="106" stroke="#ffffff" stroke-width="2"/>
  
  <!-- Chimney with wrench -->
  <rect x="125" y="45" width="18" height="30" fill="#ffffff"/>
  <path d="M134 50 L134 70" stroke="url(#grad)" stroke-width="4" stroke-linecap="round"/>
  <circle cx="134" cy="48" r="5" fill="url(#grad)"/>
  <circle cx="134" cy="72" r="5" fill="url(#grad)"/>
</svg>