<svg xmlns="http://www.w3.org/2000/svg" viewBox="0 0 200 60">
  <defs>
    <linearGradient id="orangeGradient" x1="0%" y1="0%" x2="100%" y2="100%">
      <stop offset="0%" style="stop-color:#f97316"/>
      <stop offset="100%" style="stop-color:#ea580c"/>
    </linearGradient>
  </defs>
  
  <!-- House with tools icon -->
  <g transform="translate(5, 5)">
    <!-- House roof -->
    <path d="M25 8 L5 25 L10 25 L10 45 L40 45 L40 25 L45 25 Z" fill="url(#orangeGradient)"/>
    <!-- Door -->
    <rect x="20" y="30" width="10" height="15" fill="#fff"/>
    <!-- Window -->
    <rect x="13" y="25" width="6" height="6" fill="#fff" rx="1"/>
    <rect x="31" y="25" width="6" height="6" fill="#fff" rx="1"/>
    <!-- Wrench overlay -->
    <path d="M35 12 L42 5 L45 8 L38 15 L40 17 L48 9 L50 11 L42 19 L44 21 L39 26 L34 21 L36 19 L33 16 Z" fill="#1f2937" opacity="0.9"/>
  </g>
  
  <!-- Text: Vadodara -->
  <text x="58" y="28" font-family="Arial, sans-serif" font-size="18" font-weight="700" fill="#1f2937">Vadodara</text>
  
  <!-- Text: Mistry -->
  <text x="58" y="48" font-family="Arial, sans-serif" font-size="22" font-weight="800" fill="url(#orangeGradient)">MISTRY</text>
  
  <!-- Tagline -->
  <text x="58" y="58" font-family="Arial, sans-serif" font-size="6" fill="#6b7280" letter-spacing="1">HOME SERVICES YOU CAN TRUST</text>
</svg>